# xmcd CD database file
#
# Track frame offsets:
#	150
#	10485
#	16882
#	26417
#	38472
#	45632
#	57327
#	74670
#	92337
#	110197
#	127450
#	138902
#	145385
#	156695
#	169030
#	175892
#	188332
#	200687
#	207862
#	220287
#	227612
#	234552
#
# Disc length: 3211 seconds
#
# Revision: 0
# Processed by: cddbd v1.4PL0 Copyright (c) Steve Scherf et al.
# Submitted via: CDex 1.51
#
DISCID=410c8916
DTITLE=Olivier Caillard - Les p'tits loups du jazz
DYEAR=1900
DGENRE=Jazz
TTITLE0=Les p'tits loups du jazz 1
TTITLE1=Les p'tits loups du jazz 2
TTITLE2=Les p'tits loups du jazz 3
TTITLE3=Le casse-tête 1
TTITLE4=Le casse-tête 2
TTITLE5=Le casse-tête 3
TTITLE6=L'automne 1
TTITLE7=L'automne 2
TTITLE8=L'otorhinocéros 1
TTITLE9=L'otorhinocéros 2
TTITLE10=Au café d'Henri 1
TTITLE11=Au café d'Henri 2
TTITLE12=Au café d'Henri 3
TTITLE13=Les dents qui swinguent 1
TTITLE14=Les dents qui swinguent 2
TTITLE15=Les dents qui swinguent 3
TTITLE16=Monk Canard 1
TTITLE17=Monk Canard 2
TTITLE18=Monk Canard 3
TTITLE19=Les p'tits loups du jazz 4
TTITLE20=Les p'tits loups du jazz 5
TTITLE21=Les p'tits loups du jazz 6
EXTD=
EXTT0=
EXTT1=
EXTT2=
EXTT3=
EXTT4=
EXTT5=
EXTT6=
EXTT7=
EXTT8=
EXTT9=
EXTT10=
EXTT11=
EXTT12=
EXTT13=
EXTT14=
EXTT15=
EXTT16=
EXTT17=
EXTT18=
EXTT19=
EXTT20=
EXTT21=
PLAYORDER=
